<!-- icon666.com - MILLIONS OF FREE VECTOR ICONS --><svg viewBox="0 -30 512 512" xmlns="http://www.w3.org/2000/svg"><path d="m359 60.046875v-60.046875h-206v60.046875h-153v391.902344h512v-391.902344zm-176-30.046875h146v30.046875h-146zm299 391.953125h-452v-175.152344c25.851562 32.988281 66.050781 54.222657 111.113281 54.222657h49.847657v30.023437h130.078124v-30.023437h49.847657c45.0625 0 85.261719-21.234376 111.113281-54.222657zm-261.039062-120.90625v-30.046875h70.078124v30.046875zm149.925781-30.023437h-49.847657v-30.023438h-130.078124v30.023438h-49.847657c-61.265625 0-111.113281-49.84375-111.113281-111.113282v-69.859375h452v69.859375c0 61.269532-49.847656 111.113282-111.113281 111.113282zm0 0" fill="#000000" style="fill: rgb(255, 1, 1);"></path></svg>