<!-- icon666.com - MILLIONS OF FREE VECTOR ICONS --><svg viewBox="0 0 512 512" xmlns="http://www.w3.org/2000/svg"><path d="m256 512c141.386719 0 256-114.613281 256-256s-114.613281-256-256-256-256 114.613281-256 256c.160156 141.316406 114.683594 255.839844 256 256zm-152.75-225.890625c3.570312-3.570313 9.359375-3.570313 12.929688 0l84.113281 84.113281 194.742187-247.898437c1.996094-2.632813 5.257813-3.980469 8.53125-3.527344 3.273438.449219 6.046875 2.632813 7.257813 5.703125 1.210937 3.074219.667969 6.5625-1.417969 9.121094l-201.140625 256c-1.613281 2.054687-4.03125 3.320312-6.636719 3.476562l-.484375.046875c-2.425781-.003906-4.75-.964843-6.464843-2.679687l-91.429688-91.429688c-3.570312-3.570312-3.570312-9.359375 0-12.925781zm0 0" fill="#000000" style="fill: rgb(255, 1, 1);"></path></svg>