<!-- icon666.com - MILLIONS OF FREE VECTOR ICONS --><svg id="Layer_1" enable-background="new 0 0 64 64" viewBox="0 0 64 64" xmlns="http://www.w3.org/2000/svg"><g><path d="m51 26.4c-5.9 5.9-11.7 11.7-17.6 17.6-.3.3-.6.6-.9.9-5.4-5.4-10.7-10.7-16.1-16.1-.9-.9-1.7-1.7-2.6-2.6-2-2-5.3 1.1-3.2 3.2l17.7 17.7 2.6 2.6s2.4.9 3.2 0l17.6-17.6c.8-.8 1.7-1.7 2.5-2.5 2.1-2-1.2-5.2-3.2-3.2z" fill="#000000" style="fill: rgb(255, 1, 1);"></path><path d="m28.4 35.9c.9.9 1.7 1.7 2.6 2.6s2.4.9 3.2 0c5.9-5.9 11.7-11.7 17.6-17.6.8-.8 1.7-1.7 2.5-2.5 2-2-1.1-5.3-3.2-3.2-6 5.8-11.8 11.7-17.7 17.5-.3.3-.6.6-.9.9-5.4-5.4-10.7-10.7-16.1-16.1-.9-.9-1.7-1.7-2.6-2.6-2-2-5.3 1.1-3.2 3.2 5.9 6 11.9 11.8 17.8 17.8z" fill="#000000" style="fill: rgb(255, 1, 1);"></path></g></svg>