<!-- icon666.com - MILLIONS OF FREE VECTOR ICONS --><svg version="1.1" id="Capa_1" xmlns="http://www.w3.org/2000/svg" xmlns:xlink="http://www.w3.org/1999/xlink" x="0px" y="0px" viewBox="0 0 512.001 512.001" style="enable-background:new 0 0 512.001 512.001;" xml:space="preserve"><g><g><path d="M489.278,379.615h-63.232c5.957-5.83,10.542-13.047,13.238-21.126h20.717c2.295,6.365,7.305,11.241,13.707,13.233 c2.268,0.706,4.569,1.053,6.839,1.053c4.63,0,9.127-1.446,12.934-4.249c5.579-4.107,8.91-10.69,8.91-17.612 c0-5.324-1.954-10.36-5.31-14.256c4.103-4.712,6.048-11.075,5.058-17.658c-1.463-9.721-9.321-17.277-19.112-18.376 c-10.183-1.143-19.561,4.729-23.008,14.145h-25.41c-6.256-10.54-16.055-18.738-27.748-22.937 c0.666-3.403,0.991-6.839,0.974-10.278l19.594-6.616c4.211,5.296,10.503,8.313,17.221,8.154 c7.216-0.173,13.672-3.581,17.712-9.353c3.972-5.676,5.022-12.979,2.808-19.537c-1.704-5.045-5.165-9.191-9.591-11.809 c2.38-5.777,2.187-12.429-0.856-18.348c-4.495-8.742-14.357-13.385-23.985-11.297c-10.019,2.176-17.021,10.738-17.276,20.762 l-24.033,8.114c-3.339-2.869-7.057-5.343-11.106-7.348c-12.69-6.285-27.07-7.25-40.487-2.72l-34.082,11.507 c-25.657-13.319-55.072-20.924-85.835-21.89c-4.182-0.17-7.677,3.151-7.808,7.332c-0.132,4.181,3.151,7.677,7.332,7.808 c42.058,1.322,81.289,15.96,110.467,41.218c8.147,7.053,15.26,14.727,21.274,22.884c0.129,0.198,0.267,0.39,0.413,0.574 c15.033,20.622,23.075,44.299,23.06,68.864c-0.002,3.24-0.151,6.504-0.439,9.759h-57.956h-25.338c-0.406,0-0.802,0.041-1.19,0.103 H273.92c-4.183,0-7.574,3.391-7.574,7.574c0,4.183,3.391,7.574,7.574,7.574h105.017c0.412,0,0.816-0.039,1.211-0.103h8.845 h100.286c4.177,0,7.574,3.397,7.574,7.574s-3.397,7.574-7.574,7.574h-3.535H26.256h-3.535c-4.177,0-7.574-3.397-7.574-7.574 s3.397-7.574,7.574-7.574h66.846c0.703,0.065,1.414,0.103,2.134,0.103h50.391c0.698,0,1.389-0.041,2.077-0.103h9.512h50.391h7.231 l25.809,0.016c0.001,0,0.003,0,0.004,0c4.18,0,7.572-3.388,7.574-7.57c0-0.003,0-0.007,0-0.01c0-0.003,0-0.007,0-0.01 c0-4.183-3.391-7.574-7.574-7.574H225.71c0.898-2.459,1.389-5.112,1.389-7.878c0-12.696-10.329-23.026-23.025-23.026h-13.856 c0.898-2.459,1.389-5.112,1.389-7.878c0-12.696-10.329-23.026-23.026-23.026c-4.183,0-7.574,3.391-7.574,7.574 c0,4.183,3.391,7.574,7.574,7.574c4.344,0,7.878,3.534,7.878,7.878s-3.534,7.878-7.878,7.878h-14.898H118.19 c-4.344,0-7.878-3.534-7.878-7.878s3.534-7.878,7.878-7.878h16.948c4.183,0,7.574-3.391,7.574-7.574 c0-4.183-3.391-7.574-7.574-7.574H118.19c-12.696,0-23.026,10.329-23.026,23.026c0,2.804,0.506,5.493,1.428,7.98h-4.89 c-12.696,0-23.026,10.329-23.026,23.026c0,2.696,0.47,5.283,1.325,7.689l-19.716-0.012c-0.29-3.288-0.435-6.586-0.433-9.858 c0.019-31.64,13.681-62.329,38.468-86.414c24.831-24.128,59.182-40.208,96.726-45.279c4.145-0.56,7.052-4.374,6.492-8.52 c-0.56-4.144-4.369-7.05-8.52-6.492c-40.734,5.502-78.114,23.055-105.254,49.427c-27.746,26.959-43.038,61.503-43.06,97.269 c-0.002,3.309,0.139,6.64,0.4,9.965H22.722C10.193,379.615,0,389.808,0,402.337s10.193,22.722,22.722,22.722h0.954l7.441,5.738 c5.987,4.616,10.426,10.844,12.836,18.009c4.13,12.274,15.606,20.52,28.555,20.52h366.985c12.95,0,24.425-8.247,28.555-20.52 c2.411-7.165,6.85-13.392,12.836-18.009l7.441-5.738h0.954c12.529,0,22.722-10.193,22.722-22.722 C512,389.808,501.807,379.615,489.278,379.615z M461.769,329.919L461.769,329.919c5.754,0,10.804-3.834,12.28-9.325 c0.743-2.766,3.493-5.338,7.29-4.915c2.936,0.329,5.384,2.675,5.821,5.576c0.53,3.522-1.565,6.152-3.874,7.195 c-3.226,1.457-5.311,4.668-5.311,8.18c0,3.51,2.083,6.72,5.31,8.179c2.404,1.086,3.958,3.483,3.958,6.106 c0,2.157-1,4.13-2.742,5.413c-1.03,0.758-3.217,1.888-6.292,0.931c-2.014-0.627-3.566-2.32-4.153-4.53 c-1.467-5.527-6.524-9.388-12.296-9.388h-19.791c0.016-0.531,0.04-1.061,0.04-1.596c0-4.066-0.475-8.021-1.346-11.826H461.769z M419.965,247.305c5.452-1.841,9.01-7.09,8.651-12.763c-0.18-2.857,1.595-6.176,5.335-6.988c2.885-0.629,5.957,0.811,7.299,3.421 c1.629,3.168,0.486,6.329-1.369,8.057c-2.591,2.413-3.538,6.121-2.414,9.451c1.124,3.325,4.124,5.699,7.646,6.048 c2.625,0.26,4.864,2.034,5.703,4.519c0.69,2.044,0.374,4.233-0.866,6.005c-0.734,1.048-2.445,2.818-5.663,2.895 c-2.066,0.073-4.121-1.057-5.384-2.963c-3.158-4.768-9.183-6.807-14.653-4.962l-18.744,6.329c-0.155-0.508-0.309-1.017-0.48-1.523 c-1.289-3.819-2.993-7.422-5.045-10.779L419.965,247.305z M337.824,266.08c-5.327-4.612-10.964-8.89-16.86-12.838l21.716-7.332 c9.583-3.237,19.854-2.547,28.92,1.943c3.871,1.917,7.32,4.433,10.259,7.429c0.11,0.124,0.228,0.238,0.345,0.354 c3.774,3.95,6.671,8.71,8.47,14.04c0.819,2.427,1.382,4.892,1.702,7.369c0.012,0.113,0.03,0.225,0.047,0.338 c0.456,3.813,0.316,7.654-0.408,11.436c-1.001-0.057-2.008-0.092-3.023-0.092h-29.645 C353.123,280.686,345.933,273.1,337.824,266.08z M388.992,379.615h-1.58c0.254-3.254,0.39-6.512,0.392-9.75 c0.014-23.237-6.283-45.712-18.194-65.99h19.382c2.485,0,4.913,0.248,7.267,0.707c0.02,0.004,0.041,0.008,0.061,0.011 c17.386,3.423,30.542,18.777,30.542,37.152C426.862,362.627,409.874,379.615,388.992,379.615z M153.682,363.859h14.898h35.493v0 c4.344,0,7.877,3.534,7.877,7.878c0,4.314-3.487,7.826-7.79,7.873l-51.184-0.031c-0.524-0.047-1.032-0.145-1.521-0.29 c-0.395-0.195-0.804-0.359-1.226-0.482c-2.615-1.283-4.425-3.966-4.425-7.07C145.804,367.393,149.338,363.859,153.682,363.859z M91.702,363.962h40.309c-0.875,2.43-1.354,5.047-1.354,7.775c0,2.748,0.485,5.384,1.373,7.829l-41.977-0.026 c-3.555-0.76-6.229-3.923-6.229-7.7C83.824,367.496,87.358,363.962,91.702,363.962z M453.69,443.975 c-2.053,6.103-7.759,10.203-14.198,10.203H72.507c-6.438,0-12.144-4.101-14.198-10.203c-2.378-7.069-6.168-13.484-11.134-18.916 h417.649C459.859,430.491,456.068,436.906,453.69,443.975z" fill="#000000" style="fill: rgb(255, 1, 1);"></path></g></g><g><g><circle cx="153.32" cy="272.74" r="7.574" fill="#000000" style="fill: rgb(255, 1, 1);"></circle></g></g><g><g><circle cx="127.56" cy="294.45" r="7.574" fill="#000000" style="fill: rgb(255, 1, 1);"></circle></g></g><g><g><circle cx="163.79" cy="302.02" r="7.574" fill="#000000" style="fill: rgb(255, 1, 1);"></circle></g></g><g><g><path d="M214.79,103.969c0-9.627-4.63-14.758-8.01-18.504c-2.736-3.032-4.108-4.553-4.108-8.356s1.373-5.324,4.108-8.356 c3.38-3.747,8.01-8.877,8.01-18.504c0-4.183-3.391-7.574-7.574-7.574s-7.574,3.391-7.574,7.574c0,3.803-1.373,5.325-4.108,8.357 c-3.38,3.747-8.01,8.877-8.01,18.504c0,9.627,4.63,14.758,8.01,18.504c2.736,3.032,4.108,4.553,4.108,8.356 c0,3.803-1.373,5.325-4.108,8.357c-3.38,3.747-8.01,8.878-8.01,18.505c0,9.628,4.629,14.759,8.009,18.506 c2.736,3.033,4.109,4.554,4.109,8.359s-1.373,5.326-4.109,8.359c-3.379,3.744-8.009,8.876-8.009,18.504 c0,4.183,3.391,7.574,7.574,7.574s7.574-3.391,7.574-7.574c0-3.805,1.373-5.326,4.109-8.359c3.38-3.747,8.009-8.878,8.009-18.506 s-4.629-14.759-8.009-18.506c-2.736-3.033-4.109-4.554-4.109-8.359c0-3.804,1.373-5.325,4.108-8.357 C210.16,118.726,214.79,113.596,214.79,103.969z" fill="#000000" style="fill: rgb(255, 1, 1);"></path></g></g><g><g><path d="M270.333,103.969c0-9.627-4.63-14.758-8.01-18.504c-2.736-3.032-4.108-4.553-4.108-8.356s1.373-5.324,4.108-8.356 c3.38-3.747,8.01-8.877,8.01-18.504c0-4.183-3.391-7.574-7.574-7.574c-4.183,0-7.574,3.391-7.574,7.574 c0,3.803-1.373,5.325-4.108,8.357c-3.38,3.747-8.01,8.877-8.01,18.504c0,9.627,4.63,14.758,8.01,18.504 c2.736,3.032,4.108,4.553,4.108,8.356c0,3.803-1.373,5.325-4.108,8.357c-3.38,3.747-8.01,8.878-8.01,18.505 c0,9.628,4.629,14.759,8.009,18.506c2.736,3.033,4.109,4.554,4.109,8.359s-1.373,5.326-4.109,8.359 c-3.38,3.744-8.009,8.876-8.009,18.504c0,4.183,3.391,7.574,7.574,7.574c4.183,0,7.574-3.391,7.574-7.574 c0-3.805,1.373-5.326,4.109-8.359c3.38-3.747,8.009-8.878,8.009-18.506s-4.629-14.759-8.009-18.506 c-2.736-3.033-4.109-4.554-4.109-8.359c0-3.804,1.373-5.325,4.108-8.357C265.703,118.726,270.333,113.596,270.333,103.969z" fill="#000000" style="fill: rgb(255, 1, 1);"></path></g></g></svg>